<svg width="192" height="49" viewBox="0 0 192 49" xmlns="http://www.w3.org/2000/svg"><title>logo</title><g fill="rgba(0,0,0,0.8)" fill-rule="evenodd"><path d="M41.274 29.664c0 .182.14.336.336.336h1.232a.34.34 0 0 0 .336-.336v-4.27l3.654 4.508c.028.042.112.098.252.098h1.526c.28 0 .392-.308.252-.49l-3.92-4.69 3.654-4.116a.298.298 0 0 0-.224-.504h-1.4c-.126 0-.21.07-.266.14l-3.528 3.976v-3.78a.34.34 0 0 0-.336-.336H41.61a.332.332 0 0 0-.336.336v9.128zm9.828.07c0 .14.112.266.266.266h5.698a.266.266 0 0 0 .266-.266v-1.148a.266.266 0 0 0-.266-.266h-4.144v-2.45h3.458c.14 0 .266-.112.266-.266v-1.162a.275.275 0 0 0-.266-.266h-3.458V21.88h4.144a.266.266 0 0 0 .266-.266v-1.148a.266.266 0 0 0-.266-.266h-5.698a.266.266 0 0 0-.266.266v9.268zm8.932 0c0 .14.126.266.266.266h1.274a.266.266 0 0 0 .266-.266v-6.02h.014l5.852 6.426h.336c.14 0 .266-.112.266-.252v-9.422a.275.275 0 0 0-.266-.266h-1.288a.266.266 0 0 0-.266.266v5.782h-.014L60.65 20.06h-.35c-.14 0-.266.112-.266.252v9.422zm11.522 0c0 .14.126.266.266.266h1.274a.266.266 0 0 0 .266-.266v-6.02h.014l5.852 6.426h.336c.14 0 .266-.112.266-.252v-9.422a.275.275 0 0 0-.266-.266h-1.288a.266.266 0 0 0-.266.266v5.782h-.014l-5.824-6.188h-.35c-.14 0-.266.112-.266.252v9.422zm11.522 0c0 .14.112.266.266.266h5.698a.266.266 0 0 0 .266-.266v-1.148a.266.266 0 0 0-.266-.266h-4.144v-2.45h3.458c.14 0 .266-.112.266-.266v-1.162a.275.275 0 0 0-.266-.266h-3.458V21.88h4.144a.266.266 0 0 0 .266-.266v-1.148a.266.266 0 0 0-.266-.266h-5.698a.266.266 0 0 0-.266.266v9.268zm8.932 0v-9.268c0-.14.112-.266.266-.266h4.004c1.68 0 3.052 1.344 3.052 3.01 0 1.288-.854 2.338-2.072 2.828l1.918 3.556c.098.182 0 .406-.238.406h-1.47a.24.24 0 0 1-.224-.126l-1.862-3.71H93.83v3.57c0 .14-.126.266-.266.266h-1.288a.266.266 0 0 1-.266-.266zm1.834-5.068h2.282c.742 0 1.386-.644 1.386-1.428 0-.742-.644-1.358-1.386-1.358h-2.282v2.786zm8.19 5.068c0 .14.112.266.266.266h5.124a.266.266 0 0 0 .266-.266v-1.148a.266.266 0 0 0-.266-.266h-3.57v-7.854a.275.275 0 0 0-.266-.266H102.3a.266.266 0 0 0-.266.266v9.268zm7.49-3.444c0 2.128 1.694 3.85 3.892 3.85 2.212 0 3.906-1.722 3.906-3.85v-5.824a.275.275 0 0 0-.266-.266h-1.33a.266.266 0 0 0-.266.266v5.74c0 1.176-.826 2.114-2.044 2.114s-2.03-.938-2.03-2.128v-5.726a.266.266 0 0 0-.266-.266h-1.33a.275.275 0 0 0-.266.266v5.824zm10.206-1.176c0-2.8 2.226-5.054 5.026-5.054a5.03 5.03 0 0 1 5.04 5.054c0 2.8-2.24 5.026-5.04 5.026a4.995 4.995 0 0 1-5.026-5.026zm1.82 0a3.215 3.215 0 0 0 3.206 3.206c1.764 0 3.22-1.442 3.22-3.206s-1.456-3.234-3.22-3.234c-1.764 0-3.206 1.47-3.206 3.234zm10.136 4.564c-.028.196.084.322.266.322h1.26a.271.271 0 0 0 .252-.21l.812-5.306h.042l2.478 5.502c.042.084.112.154.238.154h.252c.126 0 .21-.07.238-.154l2.45-5.502h.042l.826 5.306c.028.098.14.21.266.21h1.274c.182 0 .294-.126.252-.322l-1.652-9.408c-.014-.112-.098-.21-.252-.21h-.224c-.126 0-.196.056-.238.14l-3.08 6.608h-.042l-3.08-6.608a.255.255 0 0 0-.238-.14h-.224c-.154 0-.238.098-.252.21l-1.666 9.408zm12.53.322c-.21 0-.322-.182-.238-.364l4.354-9.422c.042-.084.112-.154.238-.154h.14c.14 0 .196.07.238.154l4.312 9.422c.084.182-.028.364-.238.364h-1.218c-.21 0-.308-.084-.406-.28l-.686-1.512h-4.186l-.686 1.512a.422.422 0 0 1-.406.28h-1.218zm2.996-3.346h2.814l-1.4-3.08h-.042l-1.372 3.08zm7.238 2.338c0 .63.518 1.148 1.148 1.148.63 0 1.162-.518 1.162-1.148 0-.63-.532-1.162-1.162-1.162-.63 0-1.148.532-1.148 1.162zm3.836-3.878c0 2.8 2.254 5.026 5.054 5.026 1.246 0 2.45-.434 3.402-1.358.098-.098.126-.28.014-.378l-.868-.896a.258.258 0 0 0-.35 0c-.588.476-1.302.798-2.142.798-1.792 0-3.136-1.484-3.136-3.234 0-1.764 1.33-3.262 3.122-3.262.784 0 1.568.308 2.156.826.112.112.252.112.35 0l.854-.882a.26.26 0 0 0-.014-.392c-.952-.854-1.974-1.302-3.388-1.302a5.043 5.043 0 0 0-5.054 5.054zm10.248 0c0-2.8 2.226-5.054 5.026-5.054a5.03 5.03 0 0 1 5.04 5.054c0 2.8-2.24 5.026-5.04 5.026a4.995 4.995 0 0 1-5.026-5.026zm1.82 0a3.215 3.215 0 0 0 3.206 3.206c1.764 0 3.22-1.442 3.22-3.206s-1.456-3.234-3.22-3.234c-1.764 0-3.206 1.47-3.206 3.234zm10.136 4.564c-.028.196.084.322.266.322h1.26a.271.271 0 0 0 .252-.21l.812-5.306h.042l2.478 5.502c.042.084.112.154.238.154h.252c.126 0 .21-.07.238-.154l2.45-5.502h.042l.826 5.306c.028.098.14.21.266.21h1.274c.182 0 .294-.126.252-.322l-1.652-9.408c-.014-.112-.098-.21-.252-.21h-.224c-.126 0-.196.056-.238.14l-3.08 6.608h-.042l-3.08-6.608a.255.255 0 0 0-.238-.14h-.224c-.154 0-.238.098-.252.21l-1.666 9.408z"/><path d="M.626 49A.625.625 0 0 1 0 48.376V.624C0 .279.28 0 .625 0h43.561c1.037 0 1.284.594.55 1.328L22.065 24.014a.625.625 0 0 0-.002.884l22.762 22.776c.732.732.485 1.326-.551 1.326H.626zM15.14 24.899a.626.626 0 0 1 0-.886L33.358 5.785c.488-.489.324-.885-.367-.885H5.526a.626.626 0 0 0-.627.626v37.948c0 .346.28.626.625.626H33.08c.69 0 .854-.397.366-.885L15.14 24.899z"/></g></svg>
